<?xml version="1.0" standalone="no"?>
<!DOCTYPE svg PUBLIC "-//W3C//DTD SVG 20010904//EN"
 "http://www.w3.org/TR/2001/REC-SVG-20010904/DTD/svg10.dtd">
<svg version="1.0" xmlns="http://www.w3.org/2000/svg"
 viewBox="0 0 2600.000000 2600.000000"
 preserveAspectRatio="xMidYMid meet">
<metadata>
Created by potrace 1.15, written by Peter Selinger 2001-2017
</metadata>
<g transform="translate(0.000000,2600.000000) scale(0.100000,-0.100000)"
fill="#000000" stroke="none">
<path d="M11530 22720 c-496 -68 -924 -375 -1135 -815 -51 -108 -90 -219 -119
-340 l-21 -90 -5 -3254 -5 -3254 -85 104 c-174 213 -440 516 -516 589 -249
237 -561 393 -909 456 -125 23 -451 26 -565 6 -271 -48 -498 -138 -711 -281
-787 -528 -1011 -1582 -507 -2381 30 -47 270 -355 534 -685 626 -783 1058
-1339 1247 -1606 34 -48 84 -154 176 -375 766 -1834 1524 -3254 2059 -3861
l82 -92 2 -1403 3 -1403 21 -62 c53 -154 165 -263 319 -310 58 -17 202 -18
3700 -18 3498 0 3642 1 3700 18 151 46 259 149 317 303 l23 59 5 1500 5 1500
338 1155 c414 1411 431 1478 486 1835 60 389 55 -71 59 5460 3 5505 7 5113
-53 5320 -66 229 -184 425 -359 600 -206 205 -437 330 -726 392 -73 15 -135
18 -435 18 -383 0 -423 -4 -605 -66 -47 -16 -90 -29 -96 -29 -6 0 -17 19 -24
43 -23 77 -99 229 -167 331 -88 134 -263 308 -399 399 -167 111 -345 183 -549
224 -133 27 -622 26 -745 -1 -254 -55 -445 -143 -636 -292 l-94 -74 -88 69
c-155 122 -287 193 -463 249 -194 62 -237 67 -554 67 -317 0 -359 -5 -555 -67
-173 -55 -360 -158 -496 -275 l-53 -45 -68 55 c-202 162 -394 253 -645 309
-78 17 -136 21 -358 23 -146 2 -294 0 -330 -5z m570 -959 c158 -55 275 -172
332 -331 l23 -65 5 -2980 c5 -2877 6 -2982 24 -3030 29 -79 62 -128 124 -187
94 -89 191 -128 323 -128 218 0 398 142 454 357 13 50 15 422 15 2983 0 2034
3 2944 11 2986 24 136 129 284 249 351 111 62 144 68 375 68 231 0 264 -6 374
-68 121 -68 226 -216 250 -351 8 -42 11 -951 11 -2982 0 -2111 3 -2938 11
-2976 17 -81 55 -153 116 -219 95 -102 203 -149 342 -149 127 0 228 38 314
118 63 59 103 118 131 190 l21 57 5 2985 5 2985 22 57 c32 84 71 145 128 202
71 70 146 112 244 137 74 19 104 21 270 17 167 -4 193 -7 251 -29 130 -49 227
-133 290 -250 64 -121 60 107 60 -3119 0 -3204 -4 -2984 56 -3101 118 -235
427 -321 658 -185 56 33 139 118 170 175 60 111 56 -67 56 2657 0 1644 3 2510
10 2545 34 179 172 329 345 374 83 21 476 21 558 0 172 -45 310 -186 346 -353
15 -72 16 -9755 1 -9970 -21 -287 -61 -539 -129 -804 -22 -84 -197 -695 -391
-1358 -193 -663 -355 -1236 -360 -1275 -5 -39 -10 -602 -10 -1287 l0 -1218
-3095 0 -3094 0 -3 1273 c-3 1256 -3 1273 -24 1328 -34 92 -70 144 -151 216
-170 150 -249 243 -403 473 -451 674 -1156 2092 -1707 3430 -72 176 -97 225
-177 345 -182 273 -537 734 -1275 1658 -267 334 -503 635 -523 669 -75 123
-108 247 -108 408 0 236 69 398 240 570 77 78 112 104 186 142 139 72 223 92
379 92 157 0 234 -17 360 -79 128 -62 199 -126 402 -362 535 -624 863 -1077
1062 -1471 113 -223 207 -302 396 -332 237 -38 479 137 525 379 7 36 10 1366
10 4025 0 4381 -5 4032 63 4160 66 126 215 238 352 265 28 5 136 9 240 7 168
-2 197 -5 255 -25z"/>
</g>
</svg>
